<svg width="183" height="69" viewBox="0 0 183 69" fill="none" xmlns="http://www.w3.org/2000/svg">
<mask id="mask0_1_515" style="mask-type:alpha" maskUnits="userSpaceOnUse" x="28" y="0" width="125" height="35">
<path fill-rule="evenodd" clip-rule="evenodd" d="M28.9062 0H152.308V34.1405H28.9062V0Z" fill="white"/>
</mask>
<g mask="url(#mask0_1_515)">
<path fill-rule="evenodd" clip-rule="evenodd" d="M95.7983 13.7785C95.7983 13.7785 99.7229 17.8439 96.1043 23.2129C71.5734 -7.2055 28.9062 2.78731 28.9062 2.78731C28.9062 2.78731 64.7624 3.69671 94.4016 34.1405C113.936 3.81263 152.308 2.0224 152.308 2.0224C152.308 2.0224 122.948 -7.2104 95.7983 13.7785Z" fill="white"/>
</g>
<path fill-rule="evenodd" clip-rule="evenodd" d="M6.54479 68.9558H0V51.4058H2.58155V66.8591H6.54479V68.9558Z" fill="#252422"/>
<path fill-rule="evenodd" clip-rule="evenodd" d="M21.0887 68.9558H14.5439V51.4058H21.0887V53.5025H16.9026V58.9723H20.3586V61.1754H16.9026V66.8591H21.0887V68.9558Z" fill="#252422"/>
<path fill-rule="evenodd" clip-rule="evenodd" d="M32.212 59.8956H35.3847V53.5025H32.212V59.8956ZM35.3847 68.9558V62.0625H32.212V68.9558H29.8154V53.929C29.8154 52.5429 30.896 51.4058 32.212 51.4058H35.4191C36.7351 51.4058 37.8146 52.5429 37.8146 53.929V68.9558H35.3847Z" fill="#252422"/>
<path fill-rule="evenodd" clip-rule="evenodd" d="M52.4242 68.9558H49.4821L46.541 51.4058H48.8616L50.9209 65.2613L52.9145 51.4058H55.2674L52.4242 68.9558Z" fill="#252422"/>
<path fill-rule="evenodd" clip-rule="evenodd" d="M63.9937 68.9558H66.1752V51.4058H63.9937V68.9558Z" fill="#252422"/>
<path fill-rule="evenodd" clip-rule="evenodd" d="M81.2349 68.9558V53.5376H77.9573V68.9558H75.6289V51.4058H77.9573V52.7206C78.2842 51.8323 78.8094 51.4058 79.8587 51.4058H81.3007C82.5787 51.4058 83.6281 52.5429 83.6281 53.929V68.9558H81.2349Z" fill="#252422"/>
<path fill-rule="evenodd" clip-rule="evenodd" d="M95.4187 68.9558C94.1353 68.9558 93.0815 67.8332 93.0815 66.4647V53.899C93.0815 52.5294 94.1353 51.4058 95.4187 51.4058H98.645C99.9284 51.4058 100.95 52.5294 100.95 53.899V57.5494H98.6125V53.4775H95.4187V66.8862H98.9082V61.8304H97.1634V59.6547H101.081V66.4647C101.081 67.8332 100.061 68.9558 98.7771 68.9558H95.4187Z" fill="#252422"/>
<path fill-rule="evenodd" clip-rule="evenodd" d="M112.132 68.9558C110.854 68.9558 109.807 67.8332 109.807 66.4647V63.5511H112.132V66.8862H114.753V63.3051L110.265 57.7585C110.003 57.4085 109.807 56.7411 109.807 56.1105V53.899C109.807 52.5294 110.854 51.4058 112.132 51.4058H114.753C116.062 51.4058 117.079 52.5294 117.079 53.899V55.5134H114.753V53.4775H112.132V56.4258L116.652 61.9724C117.011 62.4275 117.079 63.0234 117.079 63.5858V66.4647C117.079 67.8332 116.062 68.9558 114.753 68.9558H112.132Z" fill="#252422"/>
<path fill-rule="evenodd" clip-rule="evenodd" d="M130.621 68.9558H128.263V53.5376H125.806V51.4058H133.078V53.5376H130.621V68.9558Z" fill="#252422"/>
<path fill-rule="evenodd" clip-rule="evenodd" d="M143.476 66.8862H146.71V53.4775H143.476V66.8862ZM143.444 68.9558C142.144 68.9558 141.077 67.8332 141.077 66.4647V53.899C141.077 52.5294 142.144 51.4058 143.444 51.4058H146.71C148.009 51.4058 149.076 52.5294 149.076 53.899V66.4647C149.076 67.8332 148.009 68.9558 146.71 68.9558H143.444Z" fill="#252422"/>
<path fill-rule="evenodd" clip-rule="evenodd" d="M164.135 68.9558V53.5376H160.856V68.9558H158.529V51.4058H160.856V52.7206C161.184 51.8323 161.71 51.4058 162.758 51.4058H164.2C165.479 51.4058 166.528 52.5429 166.528 53.929V68.9558H164.135Z" fill="#252422"/>
<path fill-rule="evenodd" clip-rule="evenodd" d="M182.527 68.9558H175.982V51.4058H182.527V53.5025H178.342V58.9723H181.796V61.1754H178.342V66.8591H182.527V68.9558Z" fill="#252422"/>
</svg>
